<svg xmlns="http://www.w3.org/2000/svg" viewBox="0 0 365.79 56.65"><defs><style>.cls-1{fill:#27aae1;stroke-width:0.19px;}.cls-1,.cls-2{stroke:#27aae1;stroke-miterlimit:10;}.cls-2{fill:none;stroke-width:1.86px;}.cls-3{font-size:47.5px;}.cls-3,.cls-4{fill:#231f20;font-family:Century;}.cls-4{font-size:31.85px;}</style></defs><g id="Layer_2" data-name="Layer 2"><g id="Layer_1-2" data-name="Layer 1"><path class="cls-1" d="M37.39,11.63c-10.54-4.27-21.89.95-25.07,9.84a17.62,17.62,0,0,0,8.74,21.28,17.87,17.87,0,0,0,19.67-3.08C31.51,42,22.82,35.44,22,27.43S28.1,11.57,37.39,11.63Z"/><line class="cls-2" x1="38.97" y1="9.69" x2="42.49" y2="4.12"/><line class="cls-2" x1="13.43" y1="50.01" x2="16.96" y2="44.44"/><line class="cls-2" x1="42.64" y1="13.64" x2="47.71" y2="9.42"/><line class="cls-2" x1="5.97" y1="44.2" x2="11.04" y2="39.98"/><line class="cls-2" x1="45.49" y1="19.01" x2="51.73" y2="16.85"/><line class="cls-2" x1="1.32" y1="34.98" x2="7.55" y2="32.83"/><line class="cls-2" x1="32.72" y1="7.06" x2="34.25" y2="0.64"/><line class="cls-2" x1="21.68" y1="53.49" x2="23.2" y2="47.07"/><line class="cls-2" x1="25.42" y1="6.66" x2="24.6" y2="0.11"/><line class="cls-2" x1="31.32" y1="54.02" x2="30.51" y2="47.48"/><line class="cls-2" x1="19.11" y1="8.73" x2="16.26" y2="2.78"/><line class="cls-2" x1="39.71" y1="51.78" x2="36.87" y2="45.83"/><line class="cls-2" x1="13.66" y1="12.29" x2="9.07" y2="7.55"/><line class="cls-2" x1="46.85" y1="46.58" x2="42.27" y2="41.84"/><line class="cls-2" x1="9.34" y1="17.89" x2="3.41" y2="14.99"/><line class="cls-2" x1="52.22" y1="38.84" x2="46.29" y2="35.94"/><line class="cls-2" x1="6.62" y1="26.42" x2="0.03" y2="26.19"/><line class="cls-2" x1="54.32" y1="28.08" x2="47.73" y2="27.85"/><text class="cls-3" transform="translate(61.66 42.09)">nightlight</text><text class="cls-4" transform="translate(292.66 42.09)">CMS</text></g></g></svg>